<?xml version="1.0" standalone="no"?><!DOCTYPE svg PUBLIC "-//W3C//DTD SVG 1.1//EN" "http://www.w3.org/Graphics/SVG/1.1/DTD/svg11.dtd"><svg t="1742266998301" class="icon" viewBox="0 0 1027 1024" version="1.1" xmlns="http://www.w3.org/2000/svg" p-id="8813" xmlns:xlink="http://www.w3.org/1999/xlink" width="200.5859375" height="200"><path d="M271.209726 559.615897l-162.432413 247.748531 185.345548 0.779932 67.693873 169.481311 168.178614-265.522547m-0.004216-0.012648l176.778944 265.518331 67.698089-169.477095 185.345547-0.784147-170.05045-249.489677" fill="#FFADAD" p-id="8814"></path><path d="M361.82095 994.489063a16.863393 16.863393 0 0 1-15.666092-10.61129L282.681049 824.957162l-173.975405-0.729342a16.863393 16.863393 0 0 1-14.034558-26.108747l162.432412-247.748531a16.867608 16.867608 0 0 1 28.20824 18.494926L139.911352 790.631727l154.283178 0.645024a16.863393 16.863393 0 0 1 15.590206 10.61129l55.446835 138.827879 150.185374-237.111946a16.863393 16.863393 0 0 1 28.790027-0.586003l158.806783 238.532687 55.788318-139.666833a16.854961 16.854961 0 0 1 15.590207-10.611289l153.604426-0.645025-152.175254-223.262885a16.871824 16.871824 0 0 1 4.439288-23.4359 16.87604 16.87604 0 0 1 23.4359 4.439288l170.05045 249.489676a16.863393 16.863393 0 0 1-13.865924 26.361699l-173.975405 0.729342-63.478025 158.916395a16.863393 16.863393 0 0 1-29.696435 3.090216l-162.386038-243.903677-154.287394 243.591705a16.846529 16.846529 0 0 1-14.236919 7.845693z" fill="#6E6E96" p-id="8815"></path><path d="M224.624604 589.961572s59.569934 154.460244 257.765387 173.20812l30.670295-40.619697 40.619697 40.619697s167.263775-12.238607 259.447509-162.655853l-28.97974-42.516828L247.137233 567.453158l-22.512629 22.508414z" fill="#6E6E96" opacity=".15" p-id="8816"></path><path d="M528.798047 702.238039c-184.26629 0-333.629574-149.367499-333.629574-333.633789 0-184.262074 149.371715-333.638005 333.629574-333.638006 184.287369 0 333.654869 149.375931 333.654868 333.638006-0.012648 184.26629-149.375931 333.633789-333.654868 333.633789z" fill="#FFE587" p-id="8817"></path><path d="M523.557748 653.460676c-147.849794 0-267.706356-119.860778-267.706357-267.714788s119.856562-267.710572 267.706357-267.710572c147.866657 0 267.72322 119.856562 267.723219 267.710572 0 147.866657-119.852347 267.714788-267.723219 267.714788z" fill="#FFFFFF" opacity=".64" p-id="8818"></path><path d="M525.724694 631.795433c-147.849794 0-267.706356-119.860778-267.706357-267.719004 0-147.849794 119.856562-267.706356 267.706357-267.706357 147.875089 0 267.740083 119.856562 267.740083 267.706357-0.004216 147.858226-119.873426 267.719004-267.740083 267.719004z" fill="#EDCD8C" p-id="8819"></path><path d="M524.291305 44.253758c-184.262074 0-333.629574 149.375931-333.629573 333.633789 0 184.274722 149.367499 333.633789 333.629573 333.63379 184.283153 0 333.646437-149.359068 333.646437-333.63379 0-184.262074-149.363283-333.633789-333.646437-333.633789z m-2.247047 626.76171c-170.585863 0-308.874113-138.296682-308.874113-308.886761s138.292466-308.878329 308.874113-308.878329c170.606942 0 308.895193 138.284035 308.895193 308.878329 0 170.606942-138.296682 308.886761-308.895193 308.886761z" fill="#C29379" opacity=".39" p-id="8820"></path><path d="M208.764584 395.965104c0-177.255335 143.692968-326.85049 320.944086-326.85049 130.897869 0 243.401992 84.300099 293.347145 196.652452-38.600305-133.9122-161.981317-231.880079-308.342917-231.880079-177.242687 0-320.931439 143.688752-320.931439 320.944087a319.708843 319.708843 0 0 0 27.596942 130.18539 320.969382 320.969382 0 0 1-12.613817-89.05136z" fill="#FFFFFF" opacity=".71" p-id="8821"></path><path d="M525.724694 91.38694c-147.845578 0-267.706356 119.856562-267.706357 267.714788 0 21.669459 2.592747 42.727621 7.457836 62.896238a268.831988 268.831988 0 0 1-1.222596-25.459507c0-147.858226 119.860778-267.710572 267.706356-267.710572 126.260436 0 232.027634 87.402963 260.2696 204.987184-12.736077-135.994829-127.166843-242.428131-266.504839-242.428131z" fill="#D4AC88" opacity=".61" p-id="8822"></path><path d="M519.683383 719.101431c-193.258694 0-350.48875-157.230056-350.48875-350.497181S326.424689 18.102852 519.683383 18.102852c193.271342 0 350.514045 157.234272 350.514045 350.501398-0.004216 193.267126-157.246919 350.497182-350.514045 350.497181z m0-667.271794c-174.662588 0-316.761965 142.103593-316.761965 316.774613 0 174.666804 142.099377 316.770397 316.761965 316.770396 174.67102 0 316.783044-142.103593 316.78726-316.770396 0-174.67102-142.112025-316.774613-316.78726-316.774613z" fill="#6E6E96" p-id="8823"></path><path d="M959.43007 486.542601l31.618861 31.618861-29.806046 29.806046-31.618861-31.618861z" fill="#80BBFF" p-id="8824"></path><path d="M52.698102 528.734809l29.814478 29.806046-52.698102 52.71075-29.814478-29.810263z" fill="#FF8080" p-id="8825"></path><path d="M871.799451 879.067573l54.747004 67.512592-32.748709 26.555627-54.747003-67.516808z" fill="#FFE380" p-id="8826"></path><path d="M166.517569 882.895563l29.814478 29.806046-48.482253 48.490686-29.810262-29.810263z" fill="#BFFFD4" p-id="8827"></path><path d="M391.597485 477.752558L325.109344 292.061311h40.619697l47.057297 137.436649 45.366742-137.436649h39.784959l-66.138226 185.695463H391.597485zM515.712054 477.752558V292.061311h37.466243v185.695463h-37.466243zM589.118402 477.752558V292.061311h59.978871c22.736069 0 37.537912 0.935918 44.451903 2.790891 10.61129 2.786676 19.481434 8.840634 26.635728 18.170306 7.141647 9.329672 10.737765 21.37435 10.737766 36.142466 0 11.399653-2.065766 20.982276-6.188865 28.735221-4.127315 7.765592-9.363399 13.865925-15.704035 18.300996-6.357499 4.430856-12.811962 7.365087-19.376038 8.802691-8.916519 1.770656-21.833877 2.655984-38.735212 2.655985h-24.342307v70.101122l-37.457811-0.008431z m37.457811-154.211509v52.626432h20.404705c14.679583 0 24.502509-0.965429 29.460346-2.904719 4.957837-1.935074 8.832202-4.983132 11.652604-9.114664 2.811971-4.127315 4.211632-8.937598 4.211633-14.4182 0-6.753789-1.977233-12.318708-5.914835-16.703191-3.941818-4.380266-8.941814-7.124783-14.983124-8.220904-4.451936-0.838954-13.397965-1.264754-26.821226-1.264754h-18.010103z" fill="#6E6E96" p-id="8828"></path></svg>